<?xml version="1.0" standalone="no"?>
<!DOCTYPE svg PUBLIC "-//W3C//DTD SVG 20010904//EN"
 "http://www.w3.org/TR/2001/REC-SVG-20010904/DTD/svg10.dtd">
<svg version="1.0" xmlns="http://www.w3.org/2000/svg"
 width="266.000000pt" height="266.000000pt" viewBox="0 0 266.000000 266.000000"
 preserveAspectRatio="xMidYMid meet">
<metadata>
Created by potrace 1.14, written by Peter Selinger 2001-2017
</metadata>
<g transform="translate(0.000000,266.000000) scale(0.100000,-0.100000)"
fill="#000000" stroke="none">
<path d="M1170 2614 c-119 -18 -248 -54 -355 -101 -122 -53 -184 -92 -343
-218 -31 -24 -184 -200 -215 -248 -88 -133 -172 -336 -191 -462 -2 -16 -9 -59
-15 -95 -22 -138 2 -398 51 -550 18 -55 33 -92 82 -200 4 -8 12 -24 19 -35 66
-109 89 -143 111 -164 14 -14 26 -28 26 -33 0 -4 28 -36 63 -71 162 -163 318
-261 529 -331 143 -48 229 -60 428 -60 250 0 472 70 701 220 60 40 206 174
270 249 40 48 105 147 147 226 59 111 95 219 128 384 10 48 11 369 2 405 -4
14 -12 50 -18 80 -6 30 -13 60 -14 65 -25 112 -117 297 -203 412 -159 213
-327 343 -588 454 -44 18 -165 50 -249 64 -80 13 -297 19 -366 9z"/>
</g>
</svg>
